<svg width="47" height="41" viewBox="0 0 47 41" fill="none" xmlns="http://www.w3.org/2000/svg">
<path fill-rule="evenodd" clip-rule="evenodd" d="M23.416 1.33302C22.5857 1.33408 21.7896 1.66434 21.2025 2.25147C20.6154 2.83861 20.2851 3.63464 20.284 4.46498V5.22499C20.2853 6.05471 20.6155 6.85007 21.2022 7.43678C21.7889 8.02348 22.5843 8.35367 23.414 8.35499H23.416C24.252 8.35499 25.037 8.02997 25.629 7.43897C25.9209 7.14882 26.1523 6.80368 26.3099 6.42347C26.4675 6.04326 26.5481 5.63557 26.547 5.22401V4.46595C26.5482 4.05461 26.4677 3.64714 26.3103 3.2671C26.1529 2.88706 25.9217 2.54202 25.63 2.25196C25.34 1.96002 24.9951 1.72856 24.6151 1.57081C24.235 1.41307 23.8275 1.33223 23.416 1.33302ZM23.416 9.52296H23.414C22.2746 9.52137 21.1824 9.06793 20.377 8.26197C19.5716 7.45601 19.1188 6.36341 19.118 5.22401V4.464C19.1196 3.32468 19.5729 2.23254 20.3787 1.42701C21.1844 0.621483 22.2767 0.168325 23.416 0.167002C23.9807 0.165802 24.54 0.276537 25.0616 0.492808C25.5832 0.709078 26.0568 1.0266 26.455 1.42701C26.8553 1.82516 27.1728 2.2988 27.3889 2.82044C27.605 3.34209 27.7155 3.90132 27.714 4.46595V5.22401C27.7155 5.78888 27.6049 6.34842 27.3886 6.87025C27.1723 7.39208 26.8547 7.86586 26.454 8.26405C26.0561 8.66433 25.5826 8.98157 25.0611 9.19752C24.5396 9.41346 23.9804 9.52473 23.416 9.52296ZM19.925 40.759H18.758L18.761 16.843H19.927L19.925 40.759ZM28.067 40.759H26.9L26.903 16.843H28.069L28.067 40.759ZM23.997 40.759H22.829V25.689H23.997V40.759Z" fill="url(#paint0_linear_1_57)"/>
<path fill-rule="evenodd" clip-rule="evenodd" d="M29.534 26.2728H27.486V25.1069H29.534C29.7379 25.1064 29.9332 25.025 30.0772 24.8806C30.2211 24.7363 30.302 24.5408 30.302 24.3369V14.9799C30.3031 14.3834 30.1158 13.8019 29.7669 13.3181C29.418 12.8344 28.9253 12.4731 28.359 12.2859C25.1482 11.2284 21.683 11.2281 18.472 12.2849C17.9055 12.472 17.4126 12.8331 17.0635 13.3169C16.7144 13.8007 16.527 14.3823 16.528 14.9789L16.526 24.3369C16.5265 24.5408 16.6079 24.736 16.7522 24.88C16.8966 25.024 17.0921 25.1049 17.296 25.1049H19.343V26.2719H17.294C16.7809 26.2708 16.2891 26.0664 15.9266 25.7033C15.564 25.3401 15.3602 24.848 15.36 24.3349V14.9789C15.3592 14.137 15.6242 13.3164 16.117 12.6339C16.6099 11.9514 17.3056 11.4419 18.105 11.1779C21.5544 10.0428 25.2767 10.0428 28.726 11.1779C29.5254 11.4419 30.2211 11.9517 30.7137 12.6344C31.2062 13.3172 31.4706 14.138 31.469 14.9799V24.3379C31.4685 24.8509 31.2644 25.3428 30.9017 25.7056C30.5389 26.0683 30.047 26.2723 29.534 26.2728ZM38.107 3.92592C37.277 3.92671 36.4813 4.25673 35.8943 4.84352C35.3073 5.43031 34.9771 6.22595 34.976 7.05592V7.81593C34.976 8.65093 35.302 9.43792 35.893 10.0299C36.485 10.6199 37.271 10.9469 38.107 10.9469C38.9374 10.9461 39.7336 10.6159 40.3208 10.0287C40.908 9.44151 41.2382 8.64525 41.239 7.81484V7.0569C41.238 6.22666 40.9076 5.43074 40.3204 4.84377C39.7333 4.25679 38.9372 3.92671 38.107 3.92592ZM38.107 12.1129C37.5424 12.1146 36.9832 12.0042 36.4615 11.7882C35.9399 11.5723 35.4662 11.2551 35.068 10.8549C34.6675 10.4566 34.35 9.9829 34.1339 9.46108C33.9178 8.93925 33.8074 8.37964 33.809 7.81484V7.05495C33.8106 5.91572 34.264 4.82357 35.0697 4.0182C35.8755 3.21283 36.9678 2.75999 38.107 2.75893C39.2465 2.76025 40.3389 3.21344 41.1447 4.01918C41.9504 4.82493 42.4037 5.91741 42.405 7.0569V7.81484C42.4037 8.95433 41.9504 10.0468 41.1447 10.8526C40.3389 11.6583 39.2465 12.1116 38.107 12.1129ZM8.72299 3.92189C8.31165 3.92073 7.90418 4.00118 7.52414 4.15859C7.1441 4.31599 6.79906 4.54721 6.509 4.83888C6.21721 5.12906 5.9859 5.47429 5.82849 5.85451C5.67108 6.23473 5.59071 6.64234 5.59201 7.05385V7.81191C5.59307 8.6418 5.92313 9.43739 6.50986 10.0243C7.09659 10.6112 7.89209 10.9416 8.72198 10.9429C9.55215 10.9421 10.3481 10.6121 10.9354 10.0254C11.5227 9.43868 11.8534 8.64304 11.855 7.81288V7.05287C11.8537 6.22298 11.5234 5.42745 10.9364 4.84071C10.3495 4.25398 9.55389 3.92393 8.724 3.92287L8.72299 3.92189ZM8.72299 12.1099C7.58359 12.1086 6.49125 11.6553 5.68567 10.8495C4.88008 10.0437 4.42705 8.95131 4.42599 7.81191V7.05385C4.42599 5.90385 4.873 4.82493 5.685 4.01393C6.08308 3.61383 6.55657 3.29664 7.07803 3.0807C7.5995 2.86477 8.15859 2.75433 8.72299 2.75588C9.86266 2.75693 10.9554 3.21011 11.7613 4.01589C12.5673 4.82166 13.0207 5.91418 13.022 7.05385V7.81288C13.0202 8.95247 12.5664 10.0448 11.7603 10.8504C10.9543 11.6559 9.86157 12.1088 8.72198 12.1099H8.72299ZM42.759 40.7599H41.592L41.593 19.435H42.76L42.759 40.7599Z" fill="url(#paint1_linear_1_57)"/>
<path fill-rule="evenodd" clip-rule="evenodd" d="M44.224 28.8642H42.177V27.6981H44.224C44.4277 27.6979 44.623 27.6169 44.7671 27.4729C44.9113 27.329 44.9925 27.1339 44.993 26.9302L44.994 17.5712C44.9946 16.9749 44.8072 16.3935 44.4583 15.9098C44.1095 15.4262 43.617 15.0647 43.051 14.8771C39.8399 13.8196 36.3743 13.8193 33.163 14.8761L32.796 13.7692C36.2452 12.6352 39.967 12.6355 43.416 13.7702C44.2154 14.0342 44.9111 14.5437 45.404 15.2262C45.8968 15.9087 46.1618 16.7293 46.161 17.5712L46.16 26.9302C46.1592 27.4432 45.9549 27.9349 45.5919 28.2975C45.229 28.6601 44.737 28.8639 44.224 28.8642ZM34.617 40.7602H33.45L33.451 19.4341H34.618L34.617 40.7602ZM38.687 40.7602H37.521V28.2802H38.688L38.687 40.7602ZM5.23199 40.7561H4.065L4.06799 19.4312H5.23401L5.23199 40.7561ZM9.30399 40.7561H8.13699L8.138 28.2781H9.30499L9.30399 40.7561ZM13.374 40.7571H12.209V19.4322H13.376L13.374 40.7571Z" fill="url(#paint2_linear_1_57)"/>
<path fill-rule="evenodd" clip-rule="evenodd" d="M4.65 28.8601H2.60199C2.08896 28.8596 1.59712 28.6557 1.23435 28.2929C0.87158 27.9301 0.667525 27.4382 0.666996 26.9252V17.5682C0.665912 16.7262 0.930725 15.9055 1.42365 15.2229C1.91657 14.5404 2.61243 14.0308 3.41199 13.7671C6.86097 12.6297 10.584 12.6297 14.033 13.7671L13.666 14.8752C10.4555 13.8159 6.98971 13.8156 3.779 14.8742C3.21267 15.0615 2.7199 15.4227 2.37085 15.9064C2.02181 16.3901 1.83428 16.9717 1.83499 17.5682L1.83301 26.9252C1.83301 27.3492 2.178 27.6932 2.603 27.6932H4.65V28.8601Z" fill="url(#paint3_linear_1_57)"/>
<defs>
<linearGradient id="paint0_linear_1_57" x1="1607.67" y1="2029.77" x2="-977.596" y2="2361.48" gradientUnits="userSpaceOnUse">
<stop stop-color="#FF52C1"/>
<stop offset="1" stop-color="#9952FF"/>
</linearGradient>
<linearGradient id="paint1_linear_1_57" x1="6546.09" y1="1902.96" x2="-1660.31" y2="6533.25" gradientUnits="userSpaceOnUse">
<stop stop-color="#FF52C1"/>
<stop offset="1" stop-color="#9952FF"/>
</linearGradient>
<linearGradient id="paint2_linear_1_57" x1="7187.71" y1="1404.98" x2="261.533" y2="7262.95" gradientUnits="userSpaceOnUse">
<stop stop-color="#FF52C1"/>
<stop offset="1" stop-color="#9952FF"/>
</linearGradient>
<linearGradient id="paint3_linear_1_57" x1="2281.56" y1="810.218" x2="-810.876" y2="2260.16" gradientUnits="userSpaceOnUse">
<stop stop-color="#FF52C1"/>
<stop offset="1" stop-color="#9952FF"/>
</linearGradient>
</defs>
</svg>
