<svg width="192" height="49" viewBox="0 0 192 49" fill="none" xmlns="http://www.w3.org/2000/svg">
<g clip-path="url(#clip0_2_768)">
<path d="M29.44 4.24C21.336 4.236 12.88 6.062 4.34601 8.43C3.26301 8.647 2.20501 9.357 1.64601 10.234C1.13101 11.059 0.946012 11.89 0.784012 12.76C-0.0459878 17.405 0.0560122 21.967 0.229012 27.022C0.266012 28.178 0.439012 29.55 0.979012 30.383C1.54301 31.226 2.51001 31.76 3.66501 31.936C5.14901 32.161 6.62701 32.33 8.10501 32.486L7.77801 41.612C7.75684 41.9307 7.81351 42.2499 7.94312 42.5418C8.07273 42.8338 8.2714 43.0899 8.52201 43.288C8.91701 43.588 9.35701 43.722 9.80801 43.755C10.71 43.823 11.768 43.437 12.295 42.437C14.596 38.005 16.042 36.049 18.921 33.105C26.431 33.289 32.986 32.872 40.409 32.323C43.033 32.255 44.833 30.109 45.309 28.397C46.734 23.957 46.955 18.477 47.106 12.937C47.17 10.74 46.408 8.585 45.059 7.446C43.778 6.406 42.225 6.028 40.803 5.643C36.851 4.748 32.898 4.267 29.44 4.24ZM40.236 7.713C41.66 8.099 42.916 8.473 43.707 9.115C45.03 10.52 44.986 11.455 44.967 12.971C44.818 18.344 44.56 23.559 43.347 27.511C42.824 28.985 41.914 30.034 40.193 30.193C32.632 30.753 26.071 31.183 18.47 30.968C18.3221 30.9634 18.1748 30.9891 18.0372 31.0436C17.8996 31.0982 17.7746 31.1803 17.67 31.285C14.476 34.509 12.842 36.751 10.409 41.435C10.352 41.543 10.229 41.607 10.079 41.619C9.97701 41.613 9.93601 41.535 9.92901 41.464L10.259 31.569C10.279 31.035 9.83801 30.525 9.30701 30.467C7.53701 30.295 5.77201 30.084 3.99901 29.817C3.23701 29.7 2.95601 29.492 2.74701 29.182C2.38401 28.316 2.39301 27.781 2.36401 26.948C2.19401 21.939 2.11101 17.561 2.88001 13.206C2.95101 12.561 3.19201 11.902 3.44801 11.352C3.87201 10.689 4.52201 10.592 5.17301 10.411C13.519 8.107 21.685 6.382 29.373 6.377C33.141 6.514 37.099 6.892 40.236 7.713ZM11.407 16.2C10.257 17.579 10.372 19.448 11.26 20.702C11.724 21.357 12.448 21.885 13.33 22.004C14.474 22.098 15.2 21.635 15.983 21.103C17.403 19.868 17.547 17.716 16.467 16.161C15.917 15.369 15.039 14.893 14.141 14.861C12.911 14.873 12.076 15.421 11.407 16.2ZM23.845 15.076C22.7 15.113 21.774 15.906 21.208 16.762C20.561 17.741 20.183 18.966 20.707 20.168C21.714 22.478 25.193 22.45 26.582 20.101C27.222 19.019 27.058 17.789 26.582 16.896C26.107 16.003 25.39 15.276 24.346 15.11C24.1805 15.0826 24.0127 15.0712 23.845 15.076ZM33.943 15.293C33.5833 15.2817 33.2238 15.3211 32.875 15.41C31.498 15.777 30.327 17.198 30.505 19.016C30.595 19.93 31.015 20.822 31.773 21.436C32.532 22.051 33.633 22.326 34.794 22.088C36.129 21.814 36.955 20.739 37.231 19.7C37.507 18.662 37.438 17.604 36.797 16.746C36.088 15.796 35.015 15.318 33.943 15.293ZM14.047 16.996C14.304 16.998 14.507 17.08 14.715 17.38C15.182 18.054 15.052 19.074 14.581 19.483C14.111 19.892 13.819 19.929 13.613 19.901C13.408 19.873 13.2 19.731 13.013 19.467C12.656 18.964 12.551 18.149 13.02 17.567C13.27 17.236 13.728 17.029 14.047 16.996ZM23.995 17.23C24.035 17.236 24.482 17.496 24.696 17.897C24.91 18.299 24.95 18.672 24.746 19.016C24.141 20.039 22.854 19.763 22.66 19.316C22.586 19.147 22.641 18.464 22.994 17.931C23.346 17.398 23.789 17.197 23.995 17.23ZM35.078 18.014C35.143 18.101 35.302 18.685 35.178 19.15C35.055 19.614 34.854 19.9 34.36 20C33.728 20.13 33.375 20 33.109 19.784C32.842 19.568 32.663 19.204 32.625 18.816C32.53 17.851 32.877 17.626 33.425 17.48C34.067 17.323 34.789 17.597 35.078 18.014Z" fill="#FF52C1"/>
</g>
<path d="M79.3945 20.9941V26.5312H64.0752V20.9941H79.3945ZM66.4746 9.14062V39H59.2764V9.14062H66.4746ZM84.2344 9.14062V39H77.0566V9.14062H84.2344ZM101.44 33.6064V16.8105H108.372V39H101.892L101.44 33.6064ZM102.097 29.0947L103.901 29.0537C103.901 30.5439 103.724 31.9248 103.368 33.1963C103.013 34.4541 102.486 35.5479 101.789 36.4775C101.105 37.4072 100.258 38.1318 99.2461 38.6514C98.248 39.1572 97.0928 39.4102 95.7803 39.4102C94.6865 39.4102 93.6816 39.2598 92.7656 38.959C91.8633 38.6445 91.084 38.1592 90.4277 37.5029C89.7715 36.833 89.2588 35.9785 88.8896 34.9395C88.5342 33.8867 88.3564 32.6289 88.3564 31.166V16.8105H95.2676V31.207C95.2676 31.6992 95.3291 32.123 95.4521 32.4785C95.5752 32.834 95.7529 33.1348 95.9854 33.3809C96.2178 33.6133 96.5049 33.791 96.8467 33.9141C97.2021 34.0234 97.6055 34.0781 98.0566 34.0781C99.0957 34.0781 99.9092 33.8594 100.497 33.4219C101.085 32.9844 101.495 32.3896 101.728 31.6377C101.974 30.8857 102.097 30.0381 102.097 29.0947ZM124.942 33.9141V7.5H131.895V39H125.66L124.942 33.9141ZM111.325 28.1719V27.7412C111.325 26.0596 111.51 24.5283 111.879 23.1475C112.248 21.7529 112.795 20.5566 113.52 19.5586C114.244 18.5469 115.146 17.7676 116.227 17.2207C117.307 16.6738 118.551 16.4004 119.959 16.4004C121.217 16.4004 122.317 16.6943 123.261 17.2822C124.204 17.8564 125.011 18.6631 125.681 19.7021C126.351 20.7412 126.897 21.958 127.321 23.3525C127.745 24.7334 128.066 26.2236 128.285 27.8232V28.3359C128.066 29.8398 127.745 31.2617 127.321 32.6016C126.897 33.9277 126.351 35.1035 125.681 36.1289C125.011 37.1543 124.197 37.9609 123.24 38.5488C122.297 39.123 121.189 39.4102 119.918 39.4102C118.51 39.4102 117.266 39.1299 116.186 38.5693C115.119 38.0088 114.224 37.2227 113.499 36.2109C112.788 35.1992 112.248 34.0098 111.879 32.6426C111.51 31.2754 111.325 29.7852 111.325 28.1719ZM118.236 27.7412V28.1719C118.236 29.0059 118.291 29.7783 118.4 30.4893C118.51 31.2002 118.694 31.8291 118.954 32.376C119.228 32.9092 119.583 33.3262 120.021 33.627C120.472 33.9277 121.025 34.0781 121.682 34.0781C122.57 34.0781 123.302 33.8662 123.876 33.4424C124.464 33.0186 124.895 32.417 125.168 31.6377C125.455 30.8584 125.578 29.9424 125.537 28.8896V27.2695C125.564 26.3672 125.503 25.5742 125.353 24.8906C125.202 24.1934 124.963 23.6123 124.635 23.1475C124.32 22.6826 123.917 22.334 123.425 22.1016C122.946 21.8555 122.379 21.7324 121.723 21.7324C121.08 21.7324 120.533 21.8828 120.082 22.1836C119.645 22.4844 119.289 22.9082 119.016 23.4551C118.742 23.9883 118.544 24.624 118.421 25.3623C118.298 26.0869 118.236 26.8799 118.236 27.7412ZM148.567 33.9141V7.5H155.52V39H149.285L148.567 33.9141ZM134.95 28.1719V27.7412C134.95 26.0596 135.135 24.5283 135.504 23.1475C135.873 21.7529 136.42 20.5566 137.145 19.5586C137.869 18.5469 138.771 17.7676 139.852 17.2207C140.932 16.6738 142.176 16.4004 143.584 16.4004C144.842 16.4004 145.942 16.6943 146.886 17.2822C147.829 17.8564 148.636 18.6631 149.306 19.7021C149.976 20.7412 150.522 21.958 150.946 23.3525C151.37 24.7334 151.691 26.2236 151.91 27.8232V28.3359C151.691 29.8398 151.37 31.2617 150.946 32.6016C150.522 33.9277 149.976 35.1035 149.306 36.1289C148.636 37.1543 147.822 37.9609 146.865 38.5488C145.922 39.123 144.814 39.4102 143.543 39.4102C142.135 39.4102 140.891 39.1299 139.811 38.5693C138.744 38.0088 137.849 37.2227 137.124 36.2109C136.413 35.1992 135.873 34.0098 135.504 32.6426C135.135 31.2754 134.95 29.7852 134.95 28.1719ZM141.861 27.7412V28.1719C141.861 29.0059 141.916 29.7783 142.025 30.4893C142.135 31.2002 142.319 31.8291 142.579 32.376C142.853 32.9092 143.208 33.3262 143.646 33.627C144.097 33.9277 144.65 34.0781 145.307 34.0781C146.195 34.0781 146.927 33.8662 147.501 33.4424C148.089 33.0186 148.52 32.417 148.793 31.6377C149.08 30.8584 149.203 29.9424 149.162 28.8896V27.2695C149.189 26.3672 149.128 25.5742 148.978 24.8906C148.827 24.1934 148.588 23.6123 148.26 23.1475C147.945 22.6826 147.542 22.334 147.05 22.1016C146.571 21.8555 146.004 21.7324 145.348 21.7324C144.705 21.7324 144.158 21.8828 143.707 22.1836C143.27 22.4844 142.914 22.9082 142.641 23.4551C142.367 23.9883 142.169 24.624 142.046 25.3623C141.923 26.0869 141.861 26.8799 141.861 27.7412ZM166.737 7.5V39H159.806V7.5H166.737ZM181.749 39.4102C179.944 39.4102 178.331 39.1299 176.909 38.5693C175.487 37.9951 174.284 37.209 173.3 36.2109C172.329 35.2129 171.584 34.0645 171.064 32.7656C170.559 31.4668 170.306 30.0928 170.306 28.6436V27.8643C170.306 26.2373 170.531 24.7334 170.982 23.3525C171.434 21.958 172.104 20.7412 172.992 19.7021C173.881 18.6631 174.995 17.8564 176.335 17.2822C177.675 16.6943 179.233 16.4004 181.011 16.4004C182.583 16.4004 183.991 16.6533 185.235 17.1592C186.479 17.665 187.532 18.3896 188.394 19.333C189.269 20.2764 189.932 21.418 190.383 22.7578C190.848 24.0977 191.08 25.6016 191.08 27.2695V30.0791H172.951V25.752H184.333V25.2188C184.347 24.4805 184.217 23.8516 183.943 23.332C183.684 22.8125 183.301 22.416 182.795 22.1426C182.289 21.8691 181.674 21.7324 180.949 21.7324C180.197 21.7324 179.575 21.8965 179.083 22.2246C178.604 22.5527 178.229 23.0039 177.955 23.5781C177.695 24.1387 177.511 24.7881 177.401 25.5264C177.292 26.2646 177.237 27.0439 177.237 27.8643V28.6436C177.237 29.4639 177.347 30.209 177.565 30.8789C177.798 31.5488 178.126 32.123 178.55 32.6016C178.987 33.0664 179.507 33.4287 180.108 33.6885C180.724 33.9482 181.421 34.0781 182.2 34.0781C183.144 34.0781 184.073 33.9004 184.989 33.5449C185.905 33.1895 186.691 32.6016 187.348 31.7812L190.485 35.5137C190.034 36.1562 189.392 36.7783 188.558 37.3799C187.737 37.9814 186.753 38.4736 185.604 38.8564C184.456 39.2256 183.171 39.4102 181.749 39.4102Z" fill="black"/>
<defs>
<clipPath id="clip0_2_768">
<rect width="48" height="40" fill="white" transform="translate(0 4)"/>
</clipPath>
</defs>
</svg>
