<svg width="24" height="24" viewBox="0 0 24 24" fill="none" xmlns="http://www.w3.org/2000/svg">
<path d="M4 8L10.1076 12.6123L10.1097 12.614C10.7878 13.1113 11.1271 13.3601 11.4988 13.4562C11.8272 13.5412 12.1725 13.5412 12.501 13.4562C12.8729 13.36 13.2132 13.1105 13.8926 12.6123C13.8926 12.6123 17.8101 9.60594 20 8M3 17.8002V10.2002C3 9.08009 3 8.51962 3.21799 8.0918C3.40973 7.71547 3.71547 7.40973 4.0918 7.21799C4.51962 7 5.08009 7 6.2002 7H17.8002C18.9203 7 19.4796 7 19.9074 7.21799C20.2837 7.40973 20.5905 7.71547 20.7822 8.0918C21 8.5192 21 9.07899 21 10.1969V17.8036C21 18.9215 21 19.4805 20.7822 19.9079C20.5905 20.2842 20.2837 20.5905 19.9074 20.7822C19.48 21 18.921 21 17.8031 21H6.19691C5.07899 21 4.5192 21 4.0918 20.7822C3.71547 20.5905 3.40973 20.2842 3.21799 19.9079C3 19.4801 3 18.9203 3 17.8002Z" stroke="white" stroke-width="2" stroke-linecap="round" stroke-linejoin="round"/>
</svg>
