<svg width="24" height="24" viewBox="0 0 24 24" fill="none" xmlns="http://www.w3.org/2000/svg">
<path d="M9.50246 6.25722C9.19873 5.4979 8.46332 5 7.64551 5H4.89474C3.8483 5 3 5.8481 3 6.89453C3 15.7892 10.2108 23 19.1055 23C20.1519 23 21 22.1516 21 21.1052L21.0005 18.354C21.0005 17.5361 20.5027 16.8009 19.7434 16.4971L17.1069 15.4429C16.4249 15.1701 15.6483 15.2929 15.0839 15.7632L14.4035 16.3307C13.6089 16.9929 12.4396 16.9402 11.7082 16.2088L9.79222 14.2911C9.06079 13.5596 9.00673 12.3913 9.66895 11.5967L10.2363 10.9163C10.7066 10.352 10.8305 9.57516 10.5577 8.89309L9.50246 6.25722Z" stroke="white" stroke-width="2" stroke-linecap="round" stroke-linejoin="round"/>
</svg>
